<svg xmlns="http://www.w3.org/2000/svg" viewBox="0 0 1660 1660"><defs><style>.cls-1{fill:#1c1c1c;}.cls-2{fill:#fff;}</style></defs><g id="Capa_1" data-name="Capa 1"><rect class="cls-1" width="1660" height="1660" rx="499.27"/></g><g id="Capa_4" data-name="Capa 4"><path class="cls-2" d="M231.44,532.68,60.58,1129.8H156.8L329.46,532.68Z" transform="translate(-3.5 -3.5)"/><path class="cls-2" d="M592,525.5V744.9q-49.49-69.21-131.29-69.22-43.19,0-76.89,16.64a160.73,160.73,0,0,0-57.1,47.19q-23.42,30.59-35.52,72.4t-12.15,92.17q0,55.8,14.39,99.81t39.57,74.64a168.92,168.92,0,0,0,60.24,46.78q35.11,16.15,77.37,16.19,82.71,0,123.18-65.66l.9,54h112.4V525.5Zm-23.82,485.61q-28.32,35.05-70.6,35.07-44.06,0-71.95-37.32t-27.86-96.7q0-136.68,100.71-136.68,98,0,98,143.9Q596.53,976,568.22,1011.11Z" transform="translate(-3.5 -3.5)"/><path class="cls-2" d="M1039,969.72h117.8a197.91,197.91,0,0,1-8.34,38.66,172.27,172.27,0,0,1-13.69,31.49,189.42,189.42,0,0,1-44.5,54,199.3,199.3,0,0,1-40.49,26.13,222.77,222.77,0,0,1-21.13,8.94q-34.64,12.6-75.09,12.6-45,0-82.27-14.84a169.18,169.18,0,0,1-64.32-45q-27-30.11-41.81-74.64T750.3,903.19q0-59.36,14.84-102.54T807,730.08q27-27.45,65.22-40.94t85-13.46q43.18,0,78.71,11.67t62,34.17a164.32,164.32,0,0,1,41.81,54q15.3,31.5,18,70.16h-117.8q-4.52-34.2-27.44-53.52t-56.21-19.33a96.59,96.59,0,0,0-35.07,6.29Q905,785.37,892.85,800.2c-8.08,9.91-14.56,23.09-19.34,39.57s-7.18,36.74-7.18,60.72q0,72.81,26.07,107.89t60.24,35.08q34.2,0,58.45-18.89T1039,969.72Z" transform="translate(-3.5 -3.5)"/><path class="cls-2" d="M1011.09,1024.57q-24.29,18.9-58.45,18.89t-60.24-35.08q-26.11-35.05-26.07-107.89,0-36,7.18-60.72c4.78-16.48,11.26-29.66,19.34-39.57s17.53-16.93,28.31-21.12a96.59,96.59,0,0,1,35.07-6.29q33.28,0,56.21,19.33t27.44,53.52h117.8q-2.7-38.67-18-70.16a164.32,164.32,0,0,0-41.81-54q-26.55-22.46-62-34.17t-78.71-11.67q-46.74,0-85,13.46T807,730.08q-27,27.42-41.81,70.57T750.3,903.19q0,59.34,14.84,103.84T807,1081.67a169.18,169.18,0,0,0,64.32,45q37.32,14.8,82.27,14.84,40.5,0,75.09-12.6a222.77,222.77,0,0,0,21.13-8.94,199.3,199.3,0,0,0,40.49-26.13,189.42,189.42,0,0,0,44.5-54,172.27,172.27,0,0,0,13.69-31.49,197.91,197.91,0,0,0,8.34-38.66H1039Q1035.38,1005.74,1011.09,1024.57Z" transform="translate(-3.5 -3.5)"/><path class="cls-2" d="M1171.91,1008.38a202.58,202.58,0,0,1-17.57,42.42,212.52,212.52,0,0,1-49.76,60.28,221.54,221.54,0,0,1-26.16,18.72h96.35V1008.38Zm-37.16,31.49a172.27,172.27,0,0,0,13.69-31.49h-98.68V1120a199.3,199.3,0,0,0,40.49-26.13A189.42,189.42,0,0,0,1134.75,1039.87Z" transform="translate(-3.5 -3.5)"/><path class="cls-2" d="M1596.51,775.93q-9.91-32.79-31.9-54.85t-58.45-33.73q-36.47-11.64-88.59-11.67-53.1,0-89.93,11.22t-59.8,31.93a120.49,120.49,0,0,0-33.28,49.47q-10.33,28.77-11.25,62.94h108.82q4.51-29.67,22-47.68t58-17.95q34.15,0,54.38,12.12t20.23,33.73q0,23.37-15.26,33.73t-59.35,16.64q-44.1,6.3-81.4,13.91T1266.5,899.6a113.79,113.79,0,0,0-42.29,44.5q-15.3,28.32-15.27,76,0,54,35.5,87.69t112,33.73q45,0,79.16-13.94t54.86-37.32a178.85,178.85,0,0,0,7.18,39.56h108.82V850.12Q1606.42,808.76,1596.51,775.93ZM1488.62,961.64a84,84,0,0,1-8.56,37.32,101.87,101.87,0,0,1-55.76,51.26,112.62,112.62,0,0,1-41.81,7.63q-56.64,0-56.65-49.47,0-28.75,18.89-44T1414,939.16q32.37-6.3,49.44-11.7t26.1-14.4Z" transform="translate(-3.5 -3.5)"/></g></svg>